<svg height="2126" width="720" xmlns="http://www.w3.org/2000/svg">
<rect height="2126" fill="#555" width="720"></rect>
<text fill="#7f7" font-family="Courier New" font-size="12" xml:space="preserve">
<tspan x="10" y="26">18 megabytes installed</tspan>
<tspan x="10" y="42"></tspan>
<tspan x="10" y="58">node_modules</tspan>
<tspan x="10" y="74">├── UNMET PEER DEPENDENCY font-awesome@&gt;=4.3.0</tspan>
<tspan x="10" y="90">└─┬ font-awesome-webpack@0.0.5-beta.2 </tspan>
<tspan x="10" y="106">  ├─┬ css-loader@0.26.4 </tspan>
<tspan x="10" y="122">  │ ├─┬ babel-code-frame@6.22.0 </tspan>
<tspan x="10" y="138">  │ │ ├─┬ chalk@1.1.3 </tspan>
<tspan x="10" y="154">  │ │ │ ├── ansi-styles@2.2.1 </tspan>
<tspan x="10" y="170">  │ │ │ ├── escape-string-regexp@1.0.5 </tspan>
<tspan x="10" y="186">  │ │ │ ├─┬ has-ansi@2.0.0 </tspan>
<tspan x="10" y="202">  │ │ │ │ └── ansi-regex@2.1.1 </tspan>
<tspan x="10" y="218">  │ │ │ ├── strip-ansi@3.0.1 </tspan>
<tspan x="10" y="234">  │ │ │ └── supports-color@2.0.0 </tspan>
<tspan x="10" y="250">  │ │ ├── esutils@2.0.2 </tspan>
<tspan x="10" y="266">  │ │ └── js-tokens@3.0.1 </tspan>
<tspan x="10" y="282">  │ ├─┬ css-selector-tokenizer@0.7.0 </tspan>
<tspan x="10" y="298">  │ │ ├── cssesc@0.1.0 </tspan>
<tspan x="10" y="314">  │ │ ├── fastparse@1.1.1 </tspan>
<tspan x="10" y="330">  │ │ └─┬ regexpu-core@1.0.0 </tspan>
<tspan x="10" y="346">  │ │   ├── regenerate@1.3.2 </tspan>
<tspan x="10" y="362">  │ │   ├── regjsgen@0.2.0 </tspan>
<tspan x="10" y="378">  │ │   └─┬ regjsparser@0.1.5 </tspan>
<tspan x="10" y="394">  │ │     └── jsesc@0.5.0 </tspan>
<tspan x="10" y="410">  │ ├─┬ cssnano@3.10.0 </tspan>
<tspan x="10" y="426">  │ │ ├─┬ autoprefixer@6.7.7 </tspan>
<tspan x="10" y="442">  │ │ │ ├─┬ browserslist@1.7.7 </tspan>
<tspan x="10" y="458">  │ │ │ │ └── electron-to-chromium@1.3.4 </tspan>
<tspan x="10" y="474">  │ │ │ ├── caniuse-db@1.0.30000655 </tspan>
<tspan x="10" y="490">  │ │ │ ├── normalize-range@0.1.2 </tspan>
<tspan x="10" y="506">  │ │ │ └── num2fraction@1.2.2 </tspan>
<tspan x="10" y="522">  │ │ ├── decamelize@1.2.0 </tspan>
<tspan x="10" y="538">  │ │ ├── defined@1.0.0 </tspan>
<tspan x="10" y="554">  │ │ ├─┬ has@1.0.1 </tspan>
<tspan x="10" y="570">  │ │ │ └── function-bind@1.1.0 </tspan>
<tspan x="10" y="586">  │ │ ├─┬ postcss-calc@5.3.1 </tspan>
<tspan x="10" y="602">  │ │ │ ├── postcss-message-helpers@2.0.0 </tspan>
<tspan x="10" y="618">  │ │ │ └─┬ reduce-css-calc@1.3.0 </tspan>
<tspan x="10" y="634">  │ │ │   ├── balanced-match@0.4.2 </tspan>
<tspan x="10" y="650">  │ │ │   ├── math-expression-evaluator@1.2.16 </tspan>
<tspan x="10" y="666">  │ │ │   └── reduce-function-call@1.0.2 </tspan>
<tspan x="10" y="682">  │ │ ├─┬ postcss-colormin@2.2.2 </tspan>
<tspan x="10" y="698">  │ │ │ └─┬ colormin@1.1.2 </tspan>
<tspan x="10" y="714">  │ │ │   ├─┬ color@0.11.4 </tspan>
<tspan x="10" y="730">  │ │ │   │ ├── clone@1.0.2 </tspan>
<tspan x="10" y="746">  │ │ │   │ ├─┬ color-convert@1.9.0 </tspan>
<tspan x="10" y="762">  │ │ │   │ │ └── color-name@1.1.2 </tspan>
<tspan x="10" y="778">  │ │ │   │ └── color-string@0.3.0 </tspan>
<tspan x="10" y="794">  │ │ │   └── css-color-names@0.0.4 </tspan>
<tspan x="10" y="810">  │ │ ├── postcss-convert-values@2.6.1 </tspan>
<tspan x="10" y="826">  │ │ ├── postcss-discard-comments@2.0.4 </tspan>
<tspan x="10" y="842">  │ │ ├── postcss-discard-duplicates@2.1.0 </tspan>
<tspan x="10" y="858">  │ │ ├── postcss-discard-empty@2.1.0 </tspan>
<tspan x="10" y="874">  │ │ ├── postcss-discard-overridden@0.1.1 </tspan>
<tspan x="10" y="890">  │ │ ├─┬ postcss-discard-unused@2.2.3 </tspan>
<tspan x="10" y="906">  │ │ │ └── uniqs@2.0.0 </tspan>
<tspan x="10" y="922">  │ │ ├─┬ postcss-filter-plugins@2.0.2 </tspan>
<tspan x="10" y="938">  │ │ │ └─┬ uniqid@4.1.1 </tspan>
<tspan x="10" y="954">  │ │ │   └── macaddress@0.2.8 </tspan>
<tspan x="10" y="970">  │ │ ├── postcss-merge-idents@2.1.7 </tspan>
<tspan x="10" y="986">  │ │ ├── postcss-merge-longhand@2.0.2 </tspan>
<tspan x="10" y="1002">  │ │ ├─┬ postcss-merge-rules@2.1.2 </tspan>
<tspan x="10" y="1018">  │ │ │ ├─┬ caniuse-api@1.6.1 </tspan>
<tspan x="10" y="1034">  │ │ │ │ ├── lodash.memoize@4.1.2 </tspan>
<tspan x="10" y="1050">  │ │ │ │ └── lodash.uniq@4.5.0 </tspan>
<tspan x="10" y="1066">  │ │ │ ├─┬ postcss-selector-parser@2.2.3 </tspan>
<tspan x="10" y="1082">  │ │ │ │ ├── flatten@1.0.2 </tspan>
<tspan x="10" y="1098">  │ │ │ │ ├── indexes-of@1.0.1 </tspan>
<tspan x="10" y="1114">  │ │ │ │ └── uniq@1.0.1 </tspan>
<tspan x="10" y="1130">  │ │ │ └── vendors@1.0.1 </tspan>
<tspan x="10" y="1146">  │ │ ├── postcss-minify-font-values@1.0.5 </tspan>
<tspan x="10" y="1162">  │ │ ├── postcss-minify-gradients@1.0.5 </tspan>
<tspan x="10" y="1178">  │ │ ├─┬ postcss-minify-params@1.2.2 </tspan>
<tspan x="10" y="1194">  │ │ │ └── alphanum-sort@1.0.2 </tspan>
<tspan x="10" y="1210">  │ │ ├── postcss-minify-selectors@2.1.1 </tspan>
<tspan x="10" y="1226">  │ │ ├── postcss-normalize-charset@1.1.1 </tspan>
<tspan x="10" y="1242">  │ │ ├─┬ postcss-normalize-url@3.0.8 </tspan>
<tspan x="10" y="1258">  │ │ │ ├── is-absolute-url@2.1.0 </tspan>
<tspan x="10" y="1274">  │ │ │ └─┬ normalize-url@1.9.1 </tspan>
<tspan x="10" y="1290">  │ │ │   ├── prepend-http@1.0.4 </tspan>
<tspan x="10" y="1306">  │ │ │   ├─┬ query-string@4.3.3 </tspan>
<tspan x="10" y="1322">  │ │ │   │ └── strict-uri-encode@1.1.0 </tspan>
<tspan x="10" y="1338">  │ │ │   └─┬ sort-keys@1.1.2 </tspan>
<tspan x="10" y="1354">  │ │ │     └── is-plain-obj@1.1.0 </tspan>
<tspan x="10" y="1370">  │ │ ├── postcss-ordered-values@2.2.3 </tspan>
<tspan x="10" y="1386">  │ │ ├── postcss-reduce-idents@2.4.0 </tspan>
<tspan x="10" y="1402">  │ │ ├── postcss-reduce-initial@1.0.1 </tspan>
<tspan x="10" y="1418">  │ │ ├── postcss-reduce-transforms@1.0.4 </tspan>
<tspan x="10" y="1434">  │ │ ├─┬ postcss-svgo@2.1.6 </tspan>
<tspan x="10" y="1450">  │ │ │ ├─┬ is-svg@2.1.0 </tspan>
<tspan x="10" y="1466">  │ │ │ │ └── html-comment-regex@1.1.1 </tspan>
<tspan x="10" y="1482">  │ │ │ └─┬ svgo@0.7.2 </tspan>
<tspan x="10" y="1498">  │ │ │   ├─┬ coa@1.0.1 </tspan>
<tspan x="10" y="1514">  │ │ │   │ └── q@1.5.0 </tspan>
<tspan x="10" y="1530">  │ │ │   ├── colors@1.1.2 </tspan>
<tspan x="10" y="1546">  │ │ │   ├─┬ csso@2.3.2 </tspan>
<tspan x="10" y="1562">  │ │ │   │ └── clap@1.1.3 </tspan>
<tspan x="10" y="1578">  │ │ │   ├─┬ js-yaml@3.7.0 </tspan>
<tspan x="10" y="1594">  │ │ │   │ ├─┬ argparse@1.0.9 </tspan>
<tspan x="10" y="1610">  │ │ │   │ │ └── sprintf-js@1.0.3 </tspan>
<tspan x="10" y="1626">  │ │ │   │ └── esprima@2.7.3 </tspan>
<tspan x="10" y="1642">  │ │ │   ├─┬ mkdirp@0.5.1 </tspan>
<tspan x="10" y="1658">  │ │ │   │ └── minimist@0.0.8 </tspan>
<tspan x="10" y="1674">  │ │ │   ├── sax@1.2.2 </tspan>
<tspan x="10" y="1690">  │ │ │   └── whet.extend@0.9.9 </tspan>
<tspan x="10" y="1706">  │ │ ├── postcss-unique-selectors@2.0.2 </tspan>
<tspan x="10" y="1722">  │ │ ├── postcss-value-parser@3.3.0 </tspan>
<tspan x="10" y="1738">  │ │ └── postcss-zindex@2.2.0 </tspan>
<tspan x="10" y="1754">  │ ├─┬ loader-utils@1.1.0 </tspan>
<tspan x="10" y="1770">  │ │ ├── big.js@3.1.3 </tspan>
<tspan x="10" y="1786">  │ │ ├── emojis-list@2.1.0 </tspan>
<tspan x="10" y="1802">  │ │ └── json5@0.5.1 </tspan>
<tspan x="10" y="1818">  │ ├── lodash.camelcase@4.3.0 </tspan>
<tspan x="10" y="1834">  │ ├── object-assign@4.1.1 </tspan>
<tspan x="10" y="1850">  │ ├─┬ postcss@5.2.17 </tspan>
<tspan x="10" y="1866">  │ │ ├── js-base64@2.1.9 </tspan>
<tspan x="10" y="1882">  │ │ ├── source-map@0.5.6 </tspan>
<tspan x="10" y="1898">  │ │ └─┬ supports-color@3.2.3 </tspan>
<tspan x="10" y="1914">  │ │   └── has-flag@1.0.0 </tspan>
<tspan x="10" y="1930">  │ ├── postcss-modules-extract-imports@1.0.1 </tspan>
<tspan x="10" y="1946">  │ ├─┬ postcss-modules-local-by-default@1.1.1 </tspan>
<tspan x="10" y="1962">  │ │ └── css-selector-tokenizer@0.6.0 </tspan>
<tspan x="10" y="1978">  │ ├─┬ postcss-modules-scope@1.0.2 </tspan>
<tspan x="10" y="1994">  │ │ └── css-selector-tokenizer@0.6.0 </tspan>
<tspan x="10" y="2010">  │ ├─┬ postcss-modules-values@1.2.2 </tspan>
<tspan x="10" y="2026">  │ │ └── icss-replace-symbols@1.0.2 </tspan>
<tspan x="10" y="2042">  │ └── source-list-map@0.1.8 </tspan>
<tspan x="10" y="2058">  ├── UNMET PEER DEPENDENCY less@^2.3.1</tspan>
<tspan x="10" y="2074">  ├─┬ less-loader@2.2.3 </tspan>
<tspan x="10" y="2090">  │ └── loader-utils@0.2.17 </tspan>
<tspan x="10" y="2106">  └── style-loader@0.13.2</tspan>
</text>
</svg>
